<mxfile host="app.diagrams.net" agent="Mozilla/5.0 (Windows NT 10.0; Win64; x64) AppleWebKit/537.36 (KHTML, like Gecko) Chrome/126.0.0.0 YaBrowser/24.7.0.0 Safari/537.36" version="24.8.0">
  <diagram id="iSdH8Bf3Pxa846-qju2B" name="Шаблон">
    <mxGraphModel dx="1432" dy="951" grid="0" gridSize="10" guides="1" tooltips="1" connect="1" arrows="1" fold="1" page="1" pageScale="1" pageWidth="827" pageHeight="1169" math="0" shadow="0">
      <root>
        <mxCell id="0" />
        <mxCell id="1" parent="0" />
        <mxCell id="5DFN9uElky3kn-lGwo1o-1" value="" style="shape=table;startSize=0;container=1;collapsible=0;childLayout=tableLayout;" parent="1" vertex="1">
          <mxGeometry x="78" y="58" width="685.6034482758621" height="1036.8189655172414" as="geometry" />
        </mxCell>
        <mxCell id="5DFN9uElky3kn-lGwo1o-6" value="" style="shape=tableRow;horizontal=0;startSize=0;swimlaneHead=0;swimlaneBody=0;strokeColor=inherit;top=0;left=0;bottom=0;right=0;collapsible=0;dropTarget=0;fillColor=none;points=[[0,0.5],[1,0.5]];portConstraint=eastwest;" parent="5DFN9uElky3kn-lGwo1o-1" vertex="1">
          <mxGeometry width="685.6034482758621" height="43" as="geometry" />
        </mxCell>
        <mxCell id="5DFN9uElky3kn-lGwo1o-7" value="&lt;b&gt;&lt;font style=&quot;font-size: 14px;&quot;&gt;Заголовок&lt;/font&gt;&lt;/b&gt;" style="shape=partialRectangle;html=1;whiteSpace=wrap;connectable=0;strokeColor=#9673a6;overflow=hidden;fillColor=#e1d5e7;top=0;left=0;bottom=0;right=0;pointerEvents=1;perimeterSpacing=1;" parent="5DFN9uElky3kn-lGwo1o-6" vertex="1">
          <mxGeometry width="176" height="43" as="geometry">
            <mxRectangle width="176" height="43" as="alternateBounds" />
          </mxGeometry>
        </mxCell>
        <mxCell id="5DFN9uElky3kn-lGwo1o-9" value="&lt;blockquote style=&quot;margin: 0 0 0 40px; border: none; padding: 0px;&quot;&gt;&lt;font style=&quot;font-size: 14px;&quot;&gt;Обновление списка купленных товаров в личном разделе&amp;nbsp;&lt;b&gt;&lt;font style=&quot;font-size: 14px;&quot; color=&quot;#4f4f4f&quot;&gt;Покупки&lt;/font&gt;&lt;/b&gt;&lt;/font&gt;&lt;/blockquote&gt;" style="shape=partialRectangle;html=1;whiteSpace=wrap;connectable=0;strokeColor=inherit;overflow=hidden;fillColor=none;top=0;left=0;bottom=0;right=0;pointerEvents=1;spacingLeft=7;spacingRight=7;align=left;" parent="5DFN9uElky3kn-lGwo1o-6" vertex="1">
          <mxGeometry x="176" width="510" height="43" as="geometry">
            <mxRectangle width="510" height="43" as="alternateBounds" />
          </mxGeometry>
        </mxCell>
        <mxCell id="5DFN9uElky3kn-lGwo1o-10" value="" style="shape=tableRow;horizontal=0;startSize=0;swimlaneHead=0;swimlaneBody=0;strokeColor=inherit;top=0;left=0;bottom=0;right=0;collapsible=0;dropTarget=0;fillColor=none;points=[[0,0.5],[1,0.5]];portConstraint=eastwest;" parent="5DFN9uElky3kn-lGwo1o-1" vertex="1">
          <mxGeometry y="43" width="685.6034482758621" height="70" as="geometry" />
        </mxCell>
        <mxCell id="5DFN9uElky3kn-lGwo1o-11" value="&lt;b&gt;&lt;font style=&quot;font-size: 14px;&quot;&gt;Акторы&lt;/font&gt;&lt;/b&gt;" style="shape=partialRectangle;html=1;whiteSpace=wrap;connectable=0;overflow=hidden;top=0;left=0;bottom=0;right=0;pointerEvents=1;fillColor=#f5f5f5;fontColor=#333333;strokeColor=#666666;" parent="5DFN9uElky3kn-lGwo1o-10" vertex="1">
          <mxGeometry width="176" height="70" as="geometry">
            <mxRectangle width="176" height="70" as="alternateBounds" />
          </mxGeometry>
        </mxCell>
        <mxCell id="5DFN9uElky3kn-lGwo1o-13" value="&lt;blockquote style=&quot;margin: 0 0 0 40px; border: none; padding: 0px;&quot;&gt;&lt;span style=&quot;background-color: initial; font-size: 14px;&quot;&gt;1. Покупатель на маркетплейсе&lt;br&gt;&lt;/span&gt;&lt;span style=&quot;background-color: initial; font-size: 14px;&quot;&gt;2. Система&lt;br&gt;&lt;/span&gt;&lt;span style=&quot;background-color: initial; font-size: 14px;&quot;&gt;3. Сервис оплаты&lt;/span&gt;&lt;/blockquote&gt;" style="shape=partialRectangle;html=1;whiteSpace=wrap;connectable=0;strokeColor=inherit;overflow=hidden;fillColor=none;top=0;left=0;bottom=0;right=0;pointerEvents=1;spacingLeft=7;spacingRight=7;align=left;" parent="5DFN9uElky3kn-lGwo1o-10" vertex="1">
          <mxGeometry x="176" width="510" height="70" as="geometry">
            <mxRectangle width="510" height="70" as="alternateBounds" />
          </mxGeometry>
        </mxCell>
        <mxCell id="5DFN9uElky3kn-lGwo1o-14" value="" style="shape=tableRow;horizontal=0;startSize=0;swimlaneHead=0;swimlaneBody=0;strokeColor=inherit;top=0;left=0;bottom=0;right=0;collapsible=0;dropTarget=0;fillColor=none;points=[[0,0.5],[1,0.5]];portConstraint=eastwest;" parent="5DFN9uElky3kn-lGwo1o-1" vertex="1">
          <mxGeometry y="113" width="685.6034482758621" height="56" as="geometry" />
        </mxCell>
        <mxCell id="5DFN9uElky3kn-lGwo1o-15" value="&lt;b&gt;&lt;font style=&quot;font-size: 14px;&quot;&gt;Предусловие&lt;/font&gt;&lt;/b&gt;" style="shape=partialRectangle;html=1;whiteSpace=wrap;connectable=0;strokeColor=#d6b656;overflow=hidden;fillColor=#fff2cc;top=0;left=0;bottom=0;right=0;pointerEvents=1;" parent="5DFN9uElky3kn-lGwo1o-14" vertex="1">
          <mxGeometry width="176" height="56" as="geometry">
            <mxRectangle width="176" height="56" as="alternateBounds" />
          </mxGeometry>
        </mxCell>
        <mxCell id="5DFN9uElky3kn-lGwo1o-17" value="&lt;blockquote style=&quot;margin: 0 0 0 40px; border: none; padding: 0px;&quot;&gt;&lt;span style=&quot;background-color: initial; font-size: 14px;&quot;&gt;- Покупатель зарегистрирован и авторизован на маркетплейсе&lt;br&gt;&lt;/span&gt;&lt;span style=&quot;background-color: initial; font-size: 14px;&quot;&gt;- В &lt;i&gt;корзине п&lt;/i&gt;&lt;/span&gt;&lt;span style=&quot;background-color: initial; font-size: 14px;&quot;&gt;&lt;i&gt;окупателя&lt;/i&gt;&amp;nbsp;присутствует хотя бы один товар&lt;/span&gt;&lt;/blockquote&gt;" style="shape=partialRectangle;html=1;whiteSpace=wrap;connectable=0;strokeColor=inherit;overflow=hidden;fillColor=none;top=0;left=0;bottom=0;right=0;pointerEvents=1;spacingLeft=7;spacingRight=7;align=left;" parent="5DFN9uElky3kn-lGwo1o-14" vertex="1">
          <mxGeometry x="176" width="510" height="56" as="geometry">
            <mxRectangle width="510" height="56" as="alternateBounds" />
          </mxGeometry>
        </mxCell>
        <mxCell id="5DFN9uElky3kn-lGwo1o-18" value="" style="shape=tableRow;horizontal=0;startSize=0;swimlaneHead=0;swimlaneBody=0;strokeColor=inherit;top=0;left=0;bottom=0;right=0;collapsible=0;dropTarget=0;fillColor=none;points=[[0,0.5],[1,0.5]];portConstraint=eastwest;" parent="5DFN9uElky3kn-lGwo1o-1" vertex="1">
          <mxGeometry y="169" width="685.6034482758621" height="94" as="geometry" />
        </mxCell>
        <mxCell id="5DFN9uElky3kn-lGwo1o-19" value="&lt;b&gt;&lt;font style=&quot;font-size: 14px;&quot;&gt;Ограничения&lt;/font&gt;&lt;/b&gt;" style="shape=partialRectangle;html=1;whiteSpace=wrap;connectable=0;strokeColor=#d6b656;overflow=hidden;fillColor=#fff2cc;top=0;left=0;bottom=0;right=0;pointerEvents=1;perimeterSpacing=1;" parent="5DFN9uElky3kn-lGwo1o-18" vertex="1">
          <mxGeometry width="176" height="94" as="geometry">
            <mxRectangle width="176" height="94" as="alternateBounds" />
          </mxGeometry>
        </mxCell>
        <mxCell id="5DFN9uElky3kn-lGwo1o-21" value="&lt;blockquote style=&quot;margin: 0 0 0 40px; border: none; padding: 0px;&quot;&gt;&lt;span style=&quot;background-color: initial; font-size: 14px;&quot;&gt;- Не более 100 различных товаров в &lt;i&gt;корзине покупателя&lt;/i&gt;&lt;/span&gt;&lt;b style=&quot;background-color: initial; font-size: 14px;&quot;&gt;&lt;font color=&quot;#4f4f4f&quot;&gt;&lt;br&gt;&lt;/font&gt;&lt;/b&gt;&lt;span style=&quot;font-size: 14px; background-color: initial;&quot;&gt;- Не более 100 единиц каждого товара&lt;/span&gt;&lt;/blockquote&gt;&lt;blockquote style=&quot;margin: 0 0 0 40px; border: none; padding: 0px;&quot;&gt;&lt;span style=&quot;font-size: 14px; background-color: initial;&quot;&gt;- Не более 10 мин. резервирование товаров в &lt;i&gt;корзине покупателя&lt;/i&gt;&lt;/span&gt;&lt;/blockquote&gt;&lt;blockquote style=&quot;margin: 0 0 0 40px; border: none; padding: 0px;&quot;&gt;&lt;span style=&quot;font-size: 14px; background-color: initial;&quot;&gt;&lt;i&gt;&lt;/i&gt;с&amp;nbsp;&lt;/span&gt;&lt;span style=&quot;background-color: initial; font-size: 14px;&quot;&gt;момента последней активности покупателя на маркетплейсе&amp;nbsp;&lt;/span&gt;&lt;/blockquote&gt;" style="shape=partialRectangle;html=1;whiteSpace=wrap;connectable=0;strokeColor=inherit;overflow=hidden;fillColor=none;top=0;left=0;bottom=0;right=0;pointerEvents=1;spacingLeft=7;spacingRight=7;align=left;" parent="5DFN9uElky3kn-lGwo1o-18" vertex="1">
          <mxGeometry x="176" width="510" height="94" as="geometry">
            <mxRectangle width="510" height="94" as="alternateBounds" />
          </mxGeometry>
        </mxCell>
        <mxCell id="5DFN9uElky3kn-lGwo1o-22" value="" style="shape=tableRow;horizontal=0;startSize=0;swimlaneHead=0;swimlaneBody=0;strokeColor=inherit;top=0;left=0;bottom=0;right=0;collapsible=0;dropTarget=0;fillColor=none;points=[[0,0.5],[1,0.5]];portConstraint=eastwest;" parent="5DFN9uElky3kn-lGwo1o-1" vertex="1">
          <mxGeometry y="263" width="685.6034482758621" height="41" as="geometry" />
        </mxCell>
        <mxCell id="5DFN9uElky3kn-lGwo1o-23" value="&lt;b&gt;&lt;font style=&quot;font-size: 14px;&quot;&gt;Триггер&lt;/font&gt;&lt;/b&gt;" style="shape=partialRectangle;html=1;whiteSpace=wrap;connectable=0;strokeColor=#d79b00;overflow=hidden;fillColor=#ffe6cc;top=0;left=0;bottom=0;right=0;pointerEvents=1;" parent="5DFN9uElky3kn-lGwo1o-22" vertex="1">
          <mxGeometry width="176" height="41" as="geometry">
            <mxRectangle width="176" height="41" as="alternateBounds" />
          </mxGeometry>
        </mxCell>
        <mxCell id="5DFN9uElky3kn-lGwo1o-25" value="&lt;blockquote style=&quot;margin: 0 0 0 40px; border: none; padding: 0px;&quot;&gt;&lt;font style=&quot;font-size: 14px;&quot;&gt;Покупатель успешно оплатил заказ&lt;/font&gt;&lt;/blockquote&gt;" style="shape=partialRectangle;html=1;whiteSpace=wrap;connectable=0;strokeColor=inherit;overflow=hidden;fillColor=none;top=0;left=0;bottom=0;right=0;pointerEvents=1;spacingLeft=7;spacingRight=7;align=left;" parent="5DFN9uElky3kn-lGwo1o-22" vertex="1">
          <mxGeometry x="176" width="510" height="41" as="geometry">
            <mxRectangle width="510" height="41" as="alternateBounds" />
          </mxGeometry>
        </mxCell>
        <mxCell id="5DFN9uElky3kn-lGwo1o-26" value="" style="shape=tableRow;horizontal=0;startSize=0;swimlaneHead=0;swimlaneBody=0;strokeColor=inherit;top=0;left=0;bottom=0;right=0;collapsible=0;dropTarget=0;fillColor=none;points=[[0,0.5],[1,0.5]];portConstraint=eastwest;" parent="5DFN9uElky3kn-lGwo1o-1" vertex="1">
          <mxGeometry y="304" width="685.6034482758621" height="281" as="geometry" />
        </mxCell>
        <mxCell id="5DFN9uElky3kn-lGwo1o-27" value="&lt;b&gt;&lt;font style=&quot;font-size: 14px;&quot;&gt;Основной сценарий&lt;/font&gt;&lt;/b&gt;" style="shape=partialRectangle;html=1;whiteSpace=wrap;connectable=0;strokeColor=#82b366;overflow=hidden;fillColor=#d5e8d4;top=0;left=0;bottom=0;right=0;pointerEvents=1;perimeterSpacing=1;" parent="5DFN9uElky3kn-lGwo1o-26" vertex="1">
          <mxGeometry width="176" height="281" as="geometry">
            <mxRectangle width="176" height="281" as="alternateBounds" />
          </mxGeometry>
        </mxCell>
        <mxCell id="5DFN9uElky3kn-lGwo1o-29" value="&lt;blockquote style=&quot;margin: 0 0 0 40px; border: none; padding: 0px;&quot;&gt;&lt;div style=&quot;text-align: left;&quot;&gt;&lt;span style=&quot;background-color: initial; font-size: 14px;&quot;&gt;1. Система отображает раздел&amp;nbsp;&lt;/span&gt;&lt;span style=&quot;background-color: initial; font-size: 14px;&quot;&gt;&lt;b style=&quot;color: rgb(79, 79, 79);&quot;&gt;Корзина&lt;/b&gt;&amp;nbsp;со списком товаров из &lt;i&gt;корзины покупателя&lt;/i&gt;&lt;/span&gt;&lt;/div&gt;&lt;span style=&quot;font-size: 14px; background-color: initial;&quot;&gt;&lt;div style=&quot;text-align: left;&quot;&gt;&lt;span style=&quot;background-color: initial;&quot;&gt;2. Покупатель в&amp;nbsp;&lt;span style=&quot;background-color: initial;&quot;&gt;разделе&amp;nbsp;&lt;/span&gt;&lt;b style=&quot;background-color: initial;&quot;&gt;&lt;font color=&quot;#4f4f4f&quot;&gt;Корзина&amp;nbsp;&lt;/font&gt;&lt;/b&gt;нажимает кнопку &lt;/span&gt;&lt;font style=&quot;background-color: initial;&quot; color=&quot;#007fff&quot;&gt;&lt;b&gt;оплатить&lt;/b&gt;&lt;/font&gt;&lt;/div&gt;&lt;/span&gt;&lt;span style=&quot;background-color: initial; font-size: 14px;&quot;&gt;&lt;div style=&quot;text-align: left;&quot;&gt;&lt;span style=&quot;background-color: initial;&quot;&gt;3. Сервис оплаты возвращает системе положительный статус оплаты заказа&lt;/span&gt;&lt;/div&gt;&lt;/span&gt;&lt;span style=&quot;background-color: initial; font-size: 14px;&quot;&gt;&lt;div style=&quot;text-align: left;&quot;&gt;&lt;span style=&quot;background-color: initial;&quot;&gt;4. Система очищает содержимое &lt;i&gt;корзины покупателя&lt;/i&gt; и отображает раздел&amp;nbsp;&lt;/span&gt;&lt;b style=&quot;background-color: initial;&quot;&gt;&lt;font color=&quot;#4f4f4f&quot;&gt;Главная&lt;/font&gt;&lt;/b&gt;&lt;/div&gt;&lt;div style=&quot;text-align: left;&quot;&gt;&lt;span style=&quot;background-color: initial;&quot;&gt;5. Покупатель из раздела&amp;nbsp;&lt;/span&gt;&lt;font style=&quot;background-color: initial; font-weight: bold;&quot; color=&quot;#4f4f4f&quot;&gt;Главная&amp;nbsp;&lt;/font&gt;&lt;span style=&quot;background-color: initial;&quot;&gt;кликает по кнопке&amp;nbsp;&lt;/span&gt;&lt;b style=&quot;background-color: initial;&quot;&gt;&lt;font color=&quot;#007fff&quot;&gt;Покупки&amp;nbsp;&lt;/font&gt;&lt;/b&gt;&lt;/div&gt;&lt;/span&gt;&lt;span style=&quot;font-size: 14px; background-color: initial;&quot;&gt;&lt;div style=&quot;text-align: left;&quot;&gt;&lt;span style=&quot;background-color: initial;&quot;&gt;6. Система&amp;nbsp; отображает раздел&amp;nbsp;&lt;b&gt;&lt;font color=&quot;#4f4f4f&quot;&gt;Покупки&amp;nbsp;&lt;/font&gt;&lt;/b&gt;и список всех купленных покупателем товаров по следующему принципу:&lt;/span&gt;&lt;span style=&quot;background-color: initial;&quot;&gt;&amp;nbsp;&lt;/span&gt;&lt;/div&gt;&lt;/span&gt;&lt;/blockquote&gt;&lt;blockquote style=&quot;margin: 0 0 0 40px; border: none; padding: 0px;&quot;&gt;&lt;div style=&quot;text-align: left;&quot;&gt;&lt;span style=&quot;background-color: initial; font-size: 14px;&quot;&gt;&lt;span style=&quot;white-space: pre;&quot;&gt;&#x9;&lt;/span&gt;- ранее не покупавшиеся товары отображаются в начале&lt;/span&gt;&lt;/div&gt;&lt;span style=&quot;background-color: initial; font-size: 14px;&quot;&gt;&lt;div style=&quot;text-align: left;&quot;&gt;&lt;span style=&quot;background-color: initial;&quot;&gt;&lt;span style=&quot;white-space: pre;&quot;&gt;&#x9;&lt;/span&gt;(в порядке добавления их в &lt;i&gt;корзину покупателя&lt;/i&gt;&lt;/span&gt;&lt;span style=&quot;background-color: initial;&quot;&gt;)&lt;/span&gt;&lt;span style=&quot;background-color: initial;&quot;&gt;&amp;nbsp;&lt;/span&gt;&lt;/div&gt;&lt;/span&gt;&lt;span style=&quot;background-color: initial; font-size: 14px;&quot;&gt;&lt;div style=&quot;text-align: left;&quot;&gt;&lt;span style=&quot;background-color: initial;&quot;&gt;&lt;span style=&quot;white-space: pre;&quot;&gt;&#x9;&lt;/span&gt;- повторно купленные товары смещаются к началу, сохраняя &lt;span style=&quot;white-space: pre;&quot;&gt;&#x9;&lt;/span&gt;свой порядок, минуя оставшиеся&lt;/span&gt;&lt;/div&gt;&lt;/span&gt;&lt;span style=&quot;background-color: initial; font-size: 14px;&quot;&gt;&lt;div style=&quot;text-align: left;&quot;&gt;&lt;span style=&quot;background-color: initial;&quot;&gt;&lt;span style=&quot;white-space: pre;&quot;&gt;&#x9;&lt;/span&gt;- оставшиеся товары отображаются далее в прежнем порядке&lt;/span&gt;&lt;/div&gt;&lt;/span&gt;&lt;/blockquote&gt;&lt;b style=&quot;background-color: initial; font-size: 14px;&quot;&gt;&lt;div style=&quot;text-align: left;&quot;&gt;&lt;/div&gt;&lt;/b&gt;" style="shape=partialRectangle;html=1;whiteSpace=wrap;connectable=0;strokeColor=inherit;overflow=hidden;fillColor=none;top=0;left=0;bottom=0;right=0;pointerEvents=1;spacingLeft=7;spacingRight=7;" parent="5DFN9uElky3kn-lGwo1o-26" vertex="1">
          <mxGeometry x="176" width="510" height="281" as="geometry">
            <mxRectangle width="510" height="281" as="alternateBounds" />
          </mxGeometry>
        </mxCell>
        <mxCell id="5DFN9uElky3kn-lGwo1o-30" value="" style="shape=tableRow;horizontal=0;startSize=0;swimlaneHead=0;swimlaneBody=0;strokeColor=inherit;top=0;left=0;bottom=0;right=0;collapsible=0;dropTarget=0;fillColor=none;points=[[0,0.5],[1,0.5]];portConstraint=eastwest;" parent="5DFN9uElky3kn-lGwo1o-1" vertex="1">
          <mxGeometry y="585" width="685.6034482758621" height="213" as="geometry" />
        </mxCell>
        <mxCell id="5DFN9uElky3kn-lGwo1o-31" value="&lt;b&gt;&lt;font style=&quot;font-size: 14px;&quot;&gt;Альтернативный сценарий&lt;/font&gt;&lt;/b&gt;" style="shape=partialRectangle;html=1;whiteSpace=wrap;connectable=0;strokeColor=#82b366;overflow=hidden;fillColor=#d5e8d4;top=0;left=0;bottom=0;right=0;pointerEvents=1;perimeterSpacing=1;" parent="5DFN9uElky3kn-lGwo1o-30" vertex="1">
          <mxGeometry width="176" height="213" as="geometry">
            <mxRectangle width="176" height="213" as="alternateBounds" />
          </mxGeometry>
        </mxCell>
        <mxCell id="5DFN9uElky3kn-lGwo1o-33" value="&lt;blockquote style=&quot;margin: 0 0 0 40px; border: none; padding: 0px;&quot;&gt;&lt;font style=&quot;font-size: 14px;&quot;&gt;&lt;span style=&quot;background-color: initial;&quot;&gt;1a. Система отображает раздел&amp;nbsp;&lt;font color=&quot;#4f4f4f&quot;&gt;&lt;b&gt;Покупки&lt;/b&gt;&lt;/font&gt;&lt;/span&gt;&lt;/font&gt;&lt;/blockquote&gt;&lt;blockquote style=&quot;margin: 0 0 0 40px; border: none; padding: 0px;&quot;&gt;&lt;font style=&quot;font-size: 14px;&quot;&gt;&lt;span style=&quot;background-color: initial;&quot;&gt;2a. Покупатель в&amp;nbsp;&lt;/span&gt;&lt;/font&gt;&lt;span style=&quot;background-color: initial; font-size: 14px;&quot;&gt;разделе&amp;nbsp;&lt;/span&gt;&lt;font style=&quot;background-color: initial; font-size: 14px;&quot; color=&quot;#4f4f4f&quot;&gt;&lt;b&gt;Покупки&amp;nbsp;&lt;/b&gt;&lt;/font&gt;&lt;span style=&quot;background-color: initial; font-size: 14px;&quot;&gt;добавляет необходимый товар в &lt;/span&gt;&lt;b style=&quot;background-color: initial; font-size: 14px;&quot;&gt;&lt;font color=&quot;#4f4f4f&quot;&gt;Корзину&lt;/font&gt;&lt;/b&gt;&lt;span style=&quot;background-color: initial; font-size: 14px;&quot;&gt;, кликая на значок&amp;nbsp; &amp;nbsp; &amp;nbsp; &amp;nbsp;корзины в карточке товара&amp;nbsp;&lt;/span&gt;&lt;/blockquote&gt;&lt;blockquote style=&quot;margin: 0 0 0 40px; border: none; padding: 0px;&quot;&gt;&lt;font style=&quot;font-size: 14px;&quot;&gt;&lt;span style=&quot;background-color: initial;&quot;&gt;3a. Система&amp;nbsp;&lt;/span&gt;&lt;/font&gt;&lt;span style=&quot;font-size: 14px; background-color: initial;&quot;&gt;затемняет значок&amp;nbsp; &amp;nbsp; &amp;nbsp; &amp;nbsp;корзины&lt;/span&gt;&lt;span style=&quot;font-size: 14px; background-color: initial;&quot;&gt;&amp;nbsp;и&amp;nbsp;&lt;/span&gt;&lt;span style=&quot;background-color: initial; font-size: 14px;&quot;&gt;обновляет содержимое &lt;i&gt;корзины покупателя&lt;/i&gt;&lt;/span&gt;&lt;font style=&quot;background-color: initial; font-size: 14px;&quot;&gt;, в соответствии с добавленным товаром&lt;/font&gt;&lt;span style=&quot;background-color: initial; font-size: 14px;&quot;&gt;&amp;nbsp;&lt;/span&gt;&lt;/blockquote&gt;&lt;blockquote style=&quot;margin: 0 0 0 40px; border: none; padding: 0px;&quot;&gt;&lt;font style=&quot;font-size: 14px;&quot;&gt;&lt;span style=&quot;background-color: initial;&quot;&gt;4a. Покупатель&amp;nbsp;&lt;/span&gt;&lt;span style=&quot;background-color: initial;&quot;&gt;из&amp;nbsp;&lt;/span&gt;&lt;span style=&quot;background-color: initial;&quot;&gt;раздела&amp;nbsp;&lt;/span&gt;&lt;font style=&quot;background-color: initial;&quot; color=&quot;#4f4f4f&quot;&gt;&lt;b&gt;Покупки&lt;/b&gt;&lt;/font&gt;&lt;span style=&quot;background-color: initial;&quot;&gt;, завершив покупки, кликает&amp;nbsp;&lt;/span&gt;&lt;span style=&quot;background-color: initial;&quot;&gt;по кнопке&amp;nbsp; &amp;nbsp; &amp;nbsp;&lt;/span&gt;&lt;/font&gt;&lt;span style=&quot;background-color: initial; font-size: 14px;&quot;&gt;&amp;nbsp; &amp;nbsp; &amp;nbsp; &amp;nbsp;домой&lt;/span&gt;&lt;/blockquote&gt;&lt;blockquote style=&quot;margin: 0 0 0 40px; border: none; padding: 0px;&quot;&gt;&lt;font style=&quot;font-size: 14px;&quot;&gt;&lt;span style=&quot;background-color: initial;&quot;&gt;5a. Система отображает раздел&lt;/span&gt;&lt;span style=&quot;background-color: initial;&quot;&gt;&amp;nbsp;&lt;/span&gt;&lt;b style=&quot;background-color: initial;&quot;&gt;&lt;font color=&quot;#4f4f4f&quot;&gt;Главная&lt;/font&gt;&lt;/b&gt;&lt;/font&gt;&lt;/blockquote&gt;&lt;blockquote style=&quot;margin: 0 0 0 40px; border: none; padding: 0px;&quot;&gt;&lt;font style=&quot;font-size: 14px;&quot;&gt;&lt;div&gt;&lt;span style=&quot;background-color: initial;&quot;&gt;6a. Покупатель из раздела&amp;nbsp;&lt;/span&gt;&lt;font style=&quot;background-color: initial; font-weight: bold;&quot; color=&quot;#4f4f4f&quot;&gt;Главная&amp;nbsp;&lt;/font&gt;&lt;span style=&quot;background-color: initial;&quot;&gt;кликает по кнопке&amp;nbsp;&lt;/span&gt;&lt;b style=&quot;background-color: initial;&quot;&gt;&lt;font color=&quot;#007fff&quot;&gt;Корзина&lt;/font&gt;&lt;/b&gt;&lt;/div&gt;&lt;div&gt;&lt;br&gt;&lt;/div&gt;&lt;/font&gt;&lt;/blockquote&gt;&lt;blockquote style=&quot;margin: 0 0 0 40px; border: none; padding: 0px;&quot;&gt;&lt;font style=&quot;font-size: 14px;&quot;&gt;&lt;span style=&quot;white-space: pre;&quot;&gt;&#x9;&lt;/span&gt;[ далее переход к шагу 1.&lt;b&gt; Основного сценария&amp;nbsp;&lt;/b&gt;]&lt;/font&gt;&lt;/blockquote&gt;" style="shape=partialRectangle;html=1;whiteSpace=wrap;connectable=0;strokeColor=inherit;overflow=hidden;fillColor=none;top=0;left=0;bottom=0;right=0;pointerEvents=1;align=left;spacingLeft=7;spacingRight=7;" parent="5DFN9uElky3kn-lGwo1o-30" vertex="1">
          <mxGeometry x="176" width="510" height="213" as="geometry">
            <mxRectangle width="510" height="213" as="alternateBounds" />
          </mxGeometry>
        </mxCell>
        <mxCell id="WLq3XIUO8xX3mYDwe5wm-9" style="shape=tableRow;horizontal=0;startSize=0;swimlaneHead=0;swimlaneBody=0;strokeColor=inherit;top=0;left=0;bottom=0;right=0;collapsible=0;dropTarget=0;fillColor=none;points=[[0,0.5],[1,0.5]];portConstraint=eastwest;" vertex="1" parent="5DFN9uElky3kn-lGwo1o-1">
          <mxGeometry y="798" width="685.6034482758621" height="65" as="geometry" />
        </mxCell>
        <mxCell id="WLq3XIUO8xX3mYDwe5wm-10" value="&lt;b&gt;&lt;font style=&quot;font-size: 14px;&quot;&gt;Критерий успеха&lt;/font&gt;&lt;/b&gt;" style="shape=partialRectangle;html=1;whiteSpace=wrap;connectable=0;strokeColor=#82b366;overflow=hidden;fillColor=#d5e8d4;top=0;left=0;bottom=0;right=0;pointerEvents=1;perimeterSpacing=1;" vertex="1" parent="WLq3XIUO8xX3mYDwe5wm-9">
          <mxGeometry width="176" height="65" as="geometry">
            <mxRectangle width="176" height="65" as="alternateBounds" />
          </mxGeometry>
        </mxCell>
        <mxCell id="WLq3XIUO8xX3mYDwe5wm-11" value="&lt;blockquote style=&quot;margin: 0 0 0 40px; border: none; padding: 0px;&quot;&gt;&lt;font style=&quot;font-size: 14px;&quot;&gt;Список товаров в разделе &lt;b&gt;&lt;font color=&quot;#4f4f4f&quot;&gt;Покупки&lt;/font&gt;&lt;/b&gt; обновлен по&amp;nbsp;&lt;/font&gt;&lt;/blockquote&gt;&lt;blockquote style=&quot;margin: 0 0 0 40px; border: none; padding: 0px;&quot;&gt;&lt;font style=&quot;font-size: 14px;&quot;&gt;принципу&amp;nbsp;&lt;/font&gt;&lt;span style=&quot;font-size: 14px; background-color: initial;&quot;&gt;шага 6. &lt;/span&gt;&lt;b style=&quot;font-size: 14px; background-color: initial;&quot;&gt;Основного сценария&lt;/b&gt;&lt;/blockquote&gt;" style="shape=partialRectangle;html=1;whiteSpace=wrap;connectable=0;strokeColor=inherit;overflow=hidden;fillColor=none;top=0;left=0;bottom=0;right=0;pointerEvents=1;align=left;spacingLeft=7;spacingRight=7;" vertex="1" parent="WLq3XIUO8xX3mYDwe5wm-9">
          <mxGeometry x="176" width="510" height="65" as="geometry">
            <mxRectangle width="510" height="65" as="alternateBounds" />
          </mxGeometry>
        </mxCell>
        <mxCell id="5DFN9uElky3kn-lGwo1o-34" value="" style="shape=tableRow;horizontal=0;startSize=0;swimlaneHead=0;swimlaneBody=0;strokeColor=inherit;top=0;left=0;bottom=0;right=0;collapsible=0;dropTarget=0;fillColor=none;points=[[0,0.5],[1,0.5]];portConstraint=eastwest;" parent="5DFN9uElky3kn-lGwo1o-1" vertex="1">
          <mxGeometry y="863" width="685.6034482758621" height="111" as="geometry" />
        </mxCell>
        <mxCell id="5DFN9uElky3kn-lGwo1o-35" value="&lt;b&gt;&lt;font style=&quot;font-size: 14px;&quot;&gt;Исключительный сценарий&lt;/font&gt;&lt;/b&gt;" style="shape=partialRectangle;html=1;whiteSpace=wrap;connectable=0;strokeColor=#b85450;overflow=hidden;fillColor=#f8cecc;top=0;left=0;bottom=0;right=0;pointerEvents=1;perimeterSpacing=1;" parent="5DFN9uElky3kn-lGwo1o-34" vertex="1">
          <mxGeometry width="176" height="111" as="geometry">
            <mxRectangle width="176" height="111" as="alternateBounds" />
          </mxGeometry>
        </mxCell>
        <mxCell id="5DFN9uElky3kn-lGwo1o-37" value="&lt;blockquote style=&quot;margin: 0 0 0 40px; border: none; padding: 0px;&quot;&gt;&lt;div style=&quot;text-align: left; font-size: 14px;&quot;&gt;&lt;span style=&quot;background-color: initial;&quot;&gt;&lt;font style=&quot;font-size: 14px;&quot;&gt;3b.&amp;nbsp;&lt;/font&gt;&lt;/span&gt;&lt;span style=&quot;background-color: initial;&quot;&gt;Сервис оплаты возвращает отрицательный статус оплаты заказа&lt;/span&gt;&lt;/div&gt;&lt;div style=&quot;text-align: left; font-size: 14px;&quot;&gt;&lt;span style=&quot;background-color: initial;&quot;&gt;4b. Система отображает сообщение о проблеме с оплатой заказа и рекомендацией покупателю оплатить заказ еще раз&lt;/span&gt;&lt;/div&gt;&lt;div style=&quot;text-align: left; font-size: 14px;&quot;&gt;&lt;span style=&quot;background-color: initial;&quot;&gt;&lt;br&gt;&lt;/span&gt;&lt;/div&gt;&lt;/blockquote&gt;&lt;blockquote style=&quot;margin: 0 0 0 40px; border: none; padding: 0px;&quot;&gt;&lt;blockquote style=&quot;margin: 0 0 0 40px; border: none; padding: 0px;&quot;&gt;&lt;div style=&quot;text-align: left; font-size: 14px;&quot;&gt;[ далее переход к шагу 1.&lt;b&gt;&amp;nbsp;Основного сценария&amp;nbsp;&lt;/b&gt;]&lt;/div&gt;&lt;/blockquote&gt;&lt;/blockquote&gt;" style="shape=partialRectangle;html=1;whiteSpace=wrap;connectable=0;strokeColor=inherit;overflow=hidden;fillColor=none;top=0;left=0;bottom=0;right=0;pointerEvents=1;spacingLeft=7;spacingRight=7;" parent="5DFN9uElky3kn-lGwo1o-34" vertex="1">
          <mxGeometry x="176" width="510" height="111" as="geometry">
            <mxRectangle width="510" height="111" as="alternateBounds" />
          </mxGeometry>
        </mxCell>
        <mxCell id="WLq3XIUO8xX3mYDwe5wm-12" style="shape=tableRow;horizontal=0;startSize=0;swimlaneHead=0;swimlaneBody=0;strokeColor=inherit;top=0;left=0;bottom=0;right=0;collapsible=0;dropTarget=0;fillColor=none;points=[[0,0.5],[1,0.5]];portConstraint=eastwest;" vertex="1" parent="5DFN9uElky3kn-lGwo1o-1">
          <mxGeometry y="974" width="685.6034482758621" height="63" as="geometry" />
        </mxCell>
        <mxCell id="WLq3XIUO8xX3mYDwe5wm-13" value="&lt;b&gt;&lt;font style=&quot;font-size: 14px;&quot;&gt;Результат&lt;/font&gt;&lt;/b&gt;" style="shape=partialRectangle;html=1;whiteSpace=wrap;connectable=0;strokeColor=#b85450;overflow=hidden;fillColor=#f8cecc;top=0;left=0;bottom=0;right=0;pointerEvents=1;perimeterSpacing=1;" vertex="1" parent="WLq3XIUO8xX3mYDwe5wm-12">
          <mxGeometry width="176" height="63" as="geometry">
            <mxRectangle width="176" height="63" as="alternateBounds" />
          </mxGeometry>
        </mxCell>
        <mxCell id="WLq3XIUO8xX3mYDwe5wm-14" value="&lt;blockquote style=&quot;margin: 0 0 0 40px; border: none; padding: 0px;&quot;&gt;&lt;span style=&quot;font-size: 14px;&quot;&gt;- Список товаров в разделе&amp;nbsp;&lt;/span&gt;&lt;b style=&quot;font-size: 14px;&quot;&gt;&lt;font color=&quot;#4f4f4f&quot;&gt;Покупки&lt;/font&gt;&lt;/b&gt;&lt;span style=&quot;font-size: 14px;&quot;&gt;&amp;nbsp;не обновлен&lt;/span&gt;&lt;span style=&quot;font-size: 14px; background-color: initial;&quot;&gt;&amp;nbsp;&lt;/span&gt;&lt;/blockquote&gt;&lt;blockquote style=&quot;margin: 0 0 0 40px; border: none; padding: 0px;&quot;&gt;&lt;span style=&quot;font-size: 14px; background-color: initial;&quot;&gt;- Содержимое&amp;nbsp;&lt;/span&gt;&lt;i style=&quot;background-color: initial; font-size: 14px;&quot;&gt;корзины покупателя&lt;/i&gt;&lt;span style=&quot;background-color: initial; font-size: 14px;&quot;&gt;&amp;nbsp;не меняется&amp;nbsp;&lt;/span&gt;&lt;/blockquote&gt;" style="shape=partialRectangle;html=1;whiteSpace=wrap;connectable=0;strokeColor=inherit;overflow=hidden;fillColor=none;top=0;left=0;bottom=0;right=0;pointerEvents=1;spacingLeft=7;spacingRight=7;align=left;" vertex="1" parent="WLq3XIUO8xX3mYDwe5wm-12">
          <mxGeometry x="176" width="510" height="63" as="geometry">
            <mxRectangle width="510" height="63" as="alternateBounds" />
          </mxGeometry>
        </mxCell>
        <mxCell id="WLq3XIUO8xX3mYDwe5wm-1" value="" style="html=1;verticalLabelPosition=bottom;align=center;labelBackgroundColor=#ffffff;verticalAlign=top;strokeWidth=2;strokeColor=#6D1F00;shadow=0;dashed=0;shape=mxgraph.ios7.icons.shopping_cart;fillColor=none;fontColor=#ffffff;" vertex="1" parent="1">
          <mxGeometry x="481.9999999999999" y="690" width="20" height="19.700000000000003" as="geometry" />
        </mxCell>
        <mxCell id="WLq3XIUO8xX3mYDwe5wm-2" value="" style="html=1;verticalLabelPosition=bottom;align=center;labelBackgroundColor=#ffffff;verticalAlign=top;strokeWidth=2;strokeColor=#6D1F00;shadow=0;dashed=0;shape=mxgraph.ios7.icons.shopping_cart;fillColor=#a0522d;fontColor=#ffffff;" vertex="1" parent="1">
          <mxGeometry x="503.9999999999999" y="705.9999999999999" width="20" height="19.700000000000003" as="geometry" />
        </mxCell>
        <mxCell id="WLq3XIUO8xX3mYDwe5wm-3" value="" style="group" vertex="1" connectable="0" parent="1">
          <mxGeometry x="351" y="750" width="36" height="27" as="geometry" />
        </mxCell>
        <mxCell id="WLq3XIUO8xX3mYDwe5wm-4" value="" style="rounded=1;whiteSpace=wrap;html=1;" vertex="1" parent="WLq3XIUO8xX3mYDwe5wm-3">
          <mxGeometry y="6.75" width="36" height="20.25" as="geometry" />
        </mxCell>
        <mxCell id="WLq3XIUO8xX3mYDwe5wm-5" value="" style="html=1;verticalLabelPosition=bottom;align=center;labelBackgroundColor=#ffffff;verticalAlign=top;strokeWidth=2;strokeColor=#007FFF;shadow=0;dashed=0;shape=mxgraph.ios7.icons.home;" vertex="1" parent="WLq3XIUO8xX3mYDwe5wm-3">
          <mxGeometry x="9.360000000000001" y="10.125" width="17.280000000000005" height="13.5" as="geometry" />
        </mxCell>
      </root>
    </mxGraphModel>
  </diagram>
</mxfile>
